<?xml version="1.0" encoding="UTF-8"?>
<svg xmlns="http://www.w3.org/2000/svg"
     xmlns:xlink="http://www.w3.org/1999/xlink"
     version="1.2"
     width="160mm" height="160mm" viewBox="0 0 160 160"
     stroke="none"
     fill="#000000"
     stroke-width="0.3"
     font-size="3.88"
>
<defs>
  <marker id="arrow" markerWidth="15" markerHeight="7" refX="5" refY="3.5" orient="auto" markerUnits="strokeWidth">
    <path d="M0,0 L15,3.5 L0,7 z" stroke="context-stroke" fill="context-stroke"/>
  </marker>
</defs>
<g fill="#000000" fill-opacity="0.000" id="img-ba05e874-1">
  <g transform="translate(80,80)">
    <path d="M-80,-80 L80,-80 80,80 -80,80  z" class="primitive"/>
  </g>
</g>
<g stroke-width="1.5" stroke="#D3D3D3" id="img-ba05e874-2">
</g>
<g stroke-width="1.5" stroke="#D3D3D3" id="img-ba05e874-3">
  <g transform="translate(113.33,127.42)">
    <path fill="none" d="M-26.12,-15.08 L26.12,15.08 " class="primitive"/>
  </g>
  <g transform="translate(80,60.75)">
    <path fill="none" d="M0,39.09 L0,-39.09 " class="primitive"/>
  </g>
  <g transform="translate(46.67,127.42)">
    <path fill="none" d="M26.12,-15.08 L-26.12,15.08 " class="primitive"/>
  </g>
  <g transform="translate(113.33,80)">
    <path fill="none" d="M29.61,59.21 L-29.61,-59.21 " class="primitive"/>
  </g>
  <g transform="translate(46.67,80)">
    <path fill="none" d="M29.61,-59.21 L-29.61,59.21 " class="primitive"/>
  </g>
</g>
<g fill="#D3D3D3" id="img-ba05e874-4">
</g>
<g fill="#D3D3D3" id="img-ba05e874-5">
</g>
<g font-size="4" fill="#000000" id="img-ba05e874-6">
</g>
<g stroke-width="0" stroke="#000000" stroke-opacity="0.000" id="img-ba05e874-7">
  <g transform="translate(80,108.18)" fill="#FF0000">
    <circle cx="0" cy="0" r="8" class="primitive"/>
  </g>
  <g transform="translate(146.67,146.67)" fill="#0000FF">
    <circle cx="0" cy="0" r="8" class="primitive"/>
  </g>
  <g transform="translate(80,13.33)" fill="#008000">
    <circle cx="0" cy="0" r="8" class="primitive"/>
  </g>
  <g transform="translate(13.33,146.67)" fill="#0000FF">
    <circle cx="0" cy="0" r="8" class="primitive"/>
  </g>
</g>
<g font-family="Helvetica" font-size="4" fill="#000000" id="img-ba05e874-8">
  <g transform="translate(88.84,99.34)">
    <g class="primitive">
      <text text-anchor="middle" dy="0.35em">1</text>
    </g>
  </g>
  <g transform="translate(155.51,137.83)">
    <g class="primitive">
      <text text-anchor="middle" dy="0.35em">2</text>
    </g>
  </g>
  <g transform="translate(88.84,4.49)">
    <g class="primitive">
      <text text-anchor="middle" dy="0.35em">3</text>
    </g>
  </g>
  <g transform="translate(22.17,137.83)">
    <g class="primitive">
      <text text-anchor="middle" dy="0.35em">4</text>
    </g>
  </g>
</g>
<g font-family="Helvetica" font-size="4" fill="#000000" id="img-ba05e874-9">
  <g transform="translate(80,0)">
    <g class="primitive">
      <text text-anchor="middle" dy="0.35em"></text>
    </g>
  </g>
</g>
</svg>
